<svg width="32" height="32" viewBox="0 0 32 32" fill="none" xmlns="http://www.w3.org/2000/svg">
<path d="M6.98047 23.1373V18.4314C6.98047 15.4407 9.37175 13.0085 12.3467 12.9425C12.9932 14.7696 14.736 16.0785 16.7842 16.0785C17.2174 16.0785 17.5687 15.7273 17.5687 15.2941C17.5687 14.8609 17.2174 14.5098 16.7842 14.5098C15.0518 14.5098 13.6471 13.1052 13.6471 11.3726V8.23535H19.1374C21.3031 8.23535 23.0589 9.99105 23.0589 12.1569V20.6707C21.9248 20.3332 21.098 19.2828 21.098 18.0392V15.2941C21.098 14.2484 19.5293 14.2484 19.5293 15.2941V16.6427C18.5667 18.2336 18.0524 20.3987 17.972 23.1373H16.2204L15.668 20.9277C15.3011 19.4606 13.9827 18.4314 12.4707 18.4314C10.9583 18.4314 9.6403 19.4607 9.27344 20.9277L8.72103 23.1373H6.98047Z" fill="#4F46E5"/>
<path fill-rule="evenodd" clip-rule="evenodd" d="M8 0C3.58171 0 0 3.58171 0 8V24C0 28.4183 3.58171 32 8 32H24C28.4183 32 32 28.4183 32 24V8C32 3.58171 28.4183 0 24 0H8ZM28.5492 11.3726C27.2497 11.3726 26.196 12.426 26.196 13.7255V18.4314C26.196 19.4559 25.5413 20.3275 24.6276 20.6504V12.1569C24.6276 9.12467 22.1693 6.66667 19.1374 6.66667H12.8626C12.4297 6.66667 12.0785 7.01782 12.0785 7.45101V11.3833C9.47396 11.5259 7.24577 13.0802 6.14551 15.2942H5.80404C4.07129 15.2942 2.66667 16.6987 2.66667 18.4314C2.66667 18.8646 3.0179 19.2157 3.45117 19.2157C3.88411 19.2157 4.23535 18.8646 4.23535 18.4314C4.23535 17.64 4.82161 16.9854 5.58333 16.8782C5.47103 17.3779 5.41178 17.8978 5.41178 18.4314V23.9216C5.41178 24.3548 5.76302 24.706 6.19629 24.706H9.33333C9.69336 24.706 10.0068 24.461 10.0944 24.1118L10.7952 21.3082C10.9873 20.5393 11.6781 20 12.4707 20C13.263 20 13.9538 20.5394 14.1462 21.3082L14.847 24.1118C14.9342 24.461 15.248 24.706 15.6077 24.706H18.7451C19.1784 24.706 19.5293 24.3548 19.5293 23.9216C19.5293 22.3611 19.6657 21.0092 19.9339 19.8656C20.6217 21.3351 22.1136 22.353 23.8431 22.353C26.0091 22.353 27.7646 20.5973 27.7646 18.4315V13.7256C27.7646 13.2924 28.1159 12.9412 28.5492 12.9412C28.9821 12.9412 29.3333 12.5901 29.3333 12.1569C29.3333 11.7237 28.9821 11.3726 28.5492 11.3726Z" fill="#4F46E5"/>
</svg>
