<svg width="16" height="16" viewBox="0 0 16 16" fill="none" xmlns="http://www.w3.org/2000/svg">
<path d="M3.49023 11.5686V9.2157C3.49023 7.72034 4.68587 6.50423 6.17334 6.47127C6.49658 7.38481 7.368 8.03923 8.39209 8.03923C8.60872 8.03923 8.78434 7.86365 8.78434 7.64705C8.78434 7.43046 8.60872 7.25488 8.39209 7.25488C7.52588 7.25488 6.82357 6.55261 6.82357 5.68628V4.11768H9.56869C10.6515 4.11768 11.5295 4.99552 11.5295 6.07845V10.3353C10.9624 10.1666 10.549 9.6414 10.549 9.01961V7.64705C10.549 7.12419 9.76465 7.12419 9.76465 7.64705V8.32133C9.28337 9.11682 9.0262 10.1993 8.986 11.5686H8.11019L7.83398 10.4639C7.65055 9.73031 6.99137 9.2157 6.23535 9.2157C5.47917 9.2157 4.82015 9.73035 4.63672 10.4639L4.36051 11.5686H3.49023Z" fill="url(#paint0_linear_635_10803)"/>
<path fill-rule="evenodd" clip-rule="evenodd" d="M4 0C1.79085 0 0 1.79085 0 4V12C0 14.2091 1.79085 16 4 16H12C14.2091 16 16 14.2091 16 12V4C16 1.79085 14.2091 0 12 0H4ZM14.2746 5.68632C13.6248 5.68632 13.098 6.21301 13.098 6.86275V9.2157C13.098 9.72795 12.7707 10.1637 12.3138 10.3252V6.07845C12.3138 4.56234 11.0846 3.33333 9.56869 3.33333H6.43132C6.21484 3.33333 6.03923 3.50891 6.03923 3.7255V5.69165C4.73698 5.76294 3.62288 6.54012 3.07275 7.64709H2.90202C2.03564 7.64709 1.33333 8.34937 1.33333 9.2157C1.33333 9.43229 1.50895 9.60787 1.72559 9.60787C1.94206 9.60787 2.11768 9.43229 2.11768 9.2157C2.11768 8.81999 2.41081 8.49272 2.79167 8.43909C2.73551 8.68897 2.70589 8.94889 2.70589 9.2157V11.9608C2.70589 12.1774 2.88151 12.353 3.09814 12.353H4.66667C4.84668 12.353 5.00342 12.2305 5.0472 12.0559L5.39762 10.6541C5.49365 10.2697 5.83903 10 6.23535 10C6.63151 10 6.97689 10.2697 7.07308 10.6541L7.4235 12.0559C7.46712 12.2305 7.62402 12.353 7.80387 12.353H9.37256C9.58919 12.353 9.76465 12.1774 9.76465 11.9608C9.76465 11.1805 9.83285 10.5046 9.96696 9.93282C10.3109 10.6676 11.0568 11.1765 11.9215 11.1765C13.0046 11.1765 13.8823 10.2987 13.8823 9.21574V6.86279C13.8823 6.6462 14.0579 6.47062 14.2746 6.47062C14.491 6.47062 14.6667 6.29504 14.6667 6.07845C14.6667 5.86186 14.491 5.68632 14.2746 5.68632Z" fill="url(#paint1_linear_635_10803)"/>
<defs>
<linearGradient id="paint0_linear_635_10803" x1="0" y1="16" x2="16" y2="0" gradientUnits="userSpaceOnUse">
<stop stop-color="#4F46E5"/>
<stop offset="1" stop-color="#22D3EE"/>
</linearGradient>
<linearGradient id="paint1_linear_635_10803" x1="0" y1="16" x2="16" y2="0" gradientUnits="userSpaceOnUse">
<stop stop-color="#4F46E5"/>
<stop offset="1" stop-color="#22D3EE"/>
</linearGradient>
</defs>
</svg>
